# xmcd
#
# Track frame offsets: 
#        150
#        19334
#        33784
#        51314
#        61059
#        75070
#        84227
#        99879
#        113281
#        128051
#
# Disc length: 1920 seconds
#
# Revision: 0
# Processed by: cddbd v1.5.2PL0 Copyright (c) Steve Scherf et al.
# Submitted via: ExactAudioCopyFreeDBPlugin 1.0
#
DISCID=5e077e0a
DTITLE=29 Mules - No Rules For Mules
DYEAR=2005
DGENRE=Country
TTITLE0=Lowdown
TTITLE1=Won't Be Brought Back
TTITLE2=In A Hole
TTITLE3=Last Call
TTITLE4=California
TTITLE5=Ain't No Honky Tonks In L.A.
TTITLE6=Inside But Left Out In The Rain
TTITLE7=Welcome To Hell
TTITLE8=Lonestar Fool
TTITLE9=If I Have To Die, ake Me Back To Texas
EXTD=
EXTT0=
EXTT1=
EXTT2=
EXTT3=
EXTT4=
EXTT5=
EXTT6=
EXTT7=
EXTT8=
EXTT9=
PLAYORDER=
